<svg width="22" height="22" viewBox="0 0 22 22" fill="none" xmlns="http://www.w3.org/2000/svg">
<g clip-path="url(#clip0_197_23167)">
<path d="M16.8438 0H5.15625C2.30853 0 0 2.30853 0 5.15625V16.8438C0 19.6915 2.30853 22 5.15625 22H16.8438C19.6915 22 22 19.6915 22 16.8438V5.15625C22 2.30853 19.6915 0 16.8438 0Z" fill="#2396ED"/>
<path d="M12.1333 10.4949H13.9136V8.88413H12.1333V10.4949ZM10.0139 10.4949H11.7941V8.88413H10.0139V10.4949ZM7.93676 10.4949H9.71712V8.88413H7.93676V10.4949ZM5.85965 10.4949H7.59773V8.88413H5.85973L5.85965 10.4949ZM3.74026 10.4949H5.52062V8.88413H3.74026V10.4949ZM5.85973 8.54502H7.59765V6.9343H5.85973V8.54502ZM7.93684 8.54502H9.71712V6.9343H7.93676L7.93684 8.54502ZM10.0139 8.54502H11.7941V6.9343H10.0139V8.54502ZM10.0139 6.5951H11.7941V4.98438H10.0139V6.5951ZM19.5937 9.77445C19.5937 9.77445 18.8307 9.05377 17.2624 9.30815C17.0928 8.07881 15.7787 7.35823 15.7787 7.35823C15.7787 7.35823 14.5495 8.84185 15.4396 10.495C15.1853 10.6222 14.7614 10.7918 14.1255 10.7918H2.46864C2.25663 11.5972 2.25663 16.9381 8.10631 16.9381C12.3028 16.9381 15.4396 14.9883 16.9232 11.4275C19.1275 11.5971 19.5937 9.77445 19.5937 9.77445Z" fill="white"/>
</g>
<defs>
<clipPath id="clip0_197_23167">
<rect width="22" height="22" fill="white"/>
</clipPath>
</defs>
</svg>
