<svg width="26" height="26" viewBox="0 0 26 26" fill="none" xmlns="http://www.w3.org/2000/svg">
<path d="M9.75 3.25H13V9.75H9.75C8.88805 9.75 8.0614 9.40759 7.4519 8.7981C6.84241 8.1886 6.5 7.36195 6.5 6.5C6.5 5.63805 6.84241 4.8114 7.4519 4.2019C8.0614 3.59241 8.88805 3.25 9.75 3.25Z" fill="#F4511E"/>
<path d="M16.25 9.75H13V3.25H16.25C17.112 3.25 17.9386 3.59241 18.5481 4.2019C19.1576 4.8114 19.5 5.63805 19.5 6.5C19.5 7.36195 19.1576 8.1886 18.5481 8.7981C17.9386 9.40759 17.112 9.75 16.25 9.75Z" fill="#FF8A65"/>
<path d="M13 13C13 14.7949 14.4551 16.25 16.25 16.25C18.0449 16.25 19.5 14.7949 19.5 13C19.5 11.2051 18.0449 9.75 16.25 9.75C14.4551 9.75 13 11.2051 13 13Z" fill="#29B6F6"/>
<path d="M9.75 9.75H13V16.25H9.75C8.88805 16.25 8.0614 15.9076 7.4519 15.2981C6.84241 14.6886 6.5 13.862 6.5 13C6.5 12.138 6.84241 11.3114 7.4519 10.7019C8.0614 10.0924 8.88805 9.75 9.75 9.75Z" fill="#7C4DFF"/>
<path d="M9.75 16.25H13V19.5C13 20.362 12.6576 21.1886 12.0481 21.7981C11.4386 22.4076 10.612 22.75 9.75 22.75C8.88805 22.75 8.0614 22.4076 7.4519 21.7981C6.84241 21.1886 6.5 20.362 6.5 19.5C6.5 18.638 6.84241 17.8114 7.4519 17.2019C8.0614 16.5924 8.88805 16.25 9.75 16.25Z" fill="#00E676"/>
</svg>
