<svg width="30" height="30" viewBox="0 0 30 30" fill="none" xmlns="http://www.w3.org/2000/svg">
<path opacity="0.5" d="M15 27.5C9.1075 27.5 6.16125 27.5 4.33 25.6688C2.5 23.84 2.5 20.8925 2.5 15C2.5 9.1075 2.5 6.16125 4.33 4.33C6.1625 2.5 9.1075 2.5 15 2.5C20.8925 2.5 23.8388 2.5 25.6688 4.33C27.5 6.1625 27.5 9.1075 27.5 15C27.5 20.8925 27.5 23.8388 25.6688 25.6688C23.84 27.5 20.8925 27.5 15 27.5V27.5" fill="#A5B4FC"/>
<path d="M15 6.5625C15.5174 6.5625 15.9375 6.98258 15.9375 7.5V22.5C15.9375 23.0174 15.5174 23.4375 15 23.4375C14.4826 23.4375 14.0625 23.0174 14.0625 22.5V7.5C14.0625 6.98258 14.4826 6.5625 15 6.5625V6.5625M8.75 10.3125C9.26742 10.3125 9.6875 10.7326 9.6875 11.25V22.5C9.6875 23.0174 9.26742 23.4375 8.75 23.4375C8.23258 23.4375 7.8125 23.0174 7.8125 22.5V11.25C7.8125 10.7326 8.23258 10.3125 8.75 10.3125V10.3125M21.25 15.3125C21.7674 15.3125 22.1875 15.7326 22.1875 16.25V22.5C22.1875 23.0174 21.7674 23.4375 21.25 23.4375C20.7326 23.4375 20.3125 23.0174 20.3125 22.5V16.25C20.3125 15.7326 20.7326 15.3125 21.25 15.3125V15.3125" fill="#A5B4FC"/>
</svg>
