<svg width="24" height="24" viewBox="0 0 24 24" fill="none" xmlns="http://www.w3.org/2000/svg">
<path opacity="0.5" d="M2 12C2 17.5192 6.48085 22 12 22C17.5192 22 22 17.5192 22 12C22 6.48085 17.5192 2 12 2C6.48085 2 2 6.48085 2 12V12" fill="#F7C22E"/>
<path d="M13.9262 14.302C14.1712 14.111 14.3932 13.889 14.8382 13.444L20.3782 7.90399C20.5122 7.76999 20.4512 7.53899 20.2722 7.47699C19.4063 7.17314 18.6201 6.67784 17.9722 6.02799C17.322 5.38018 16.8263 4.59398 16.5222 3.72799C16.4612 3.54799 16.2302 3.48799 16.0962 3.62199L10.5562 9.16199C10.1112 9.60599 9.88919 9.82899 9.69819 10.074C9.47229 10.3626 9.27879 10.6751 9.12119 11.006C8.98819 11.286 8.88819 11.585 8.69019 12.181L8.43319 12.951L8.02419 14.177L7.64219 15.325C7.54489 15.6182 7.62128 15.9412 7.83962 16.1598C8.05796 16.3783 8.3809 16.455 8.67419 16.358L9.82419 15.975L11.0482 15.567L11.8182 15.31C12.4152 15.111 12.7132 15.012 12.9932 14.878C13.3252 14.72 13.6362 14.528 13.9262 14.302V14.302M22.1132 6.16999C23.2951 4.98834 23.2953 3.06942 22.1137 1.88749C20.932 0.705564 19.0131 0.70534 17.8312 1.88699L17.6522 2.06499C17.48 2.23452 17.4029 2.47827 17.4462 2.71599C17.4732 2.86599 17.5232 3.08599 17.6142 3.34899C17.8591 4.05102 18.2606 4.6881 18.7882 5.21199C19.3118 5.73947 19.9485 6.14094 20.6502 6.38599C20.9132 6.47599 21.1332 6.52699 21.2832 6.55399C21.5232 6.59699 21.7632 6.51899 21.9352 6.34699L22.1132 6.16999" fill="#F7C22E"/>
</svg>
