<svg width="17" height="17" viewBox="0 0 17 17" fill="none" xmlns="http://www.w3.org/2000/svg">
<path d="M0 0V16.5H16.5V0H0ZM8.25 8.25H9.625V13.75C9.62391 14.1143 9.4787 14.4634 9.22107 14.7211C8.96344 14.9787 8.61434 15.1239 8.25 15.125H6.875C6.51066 15.1239 6.16156 14.9787 5.90393 14.7211C5.6463 14.4634 5.50109 14.1143 5.5 13.75V12.375H6.875V13.75H8.25V8.25ZM12.375 8.25H15.125V9.625H12.375V11H13.75C14.1143 11.0011 14.4634 11.1463 14.7211 11.4039C14.9787 11.6616 15.1239 12.0107 15.125 12.375V13.75C15.1239 14.1143 14.9787 14.4634 14.7211 14.7211C14.4634 14.9787 14.1143 15.1239 13.75 15.125H11V13.75H13.75V12.375H12.375C12.0107 12.3739 11.6616 12.2287 11.4039 11.9711C11.1463 11.7134 11.0011 11.3643 11 11V9.625C11.0011 9.26066 11.1463 8.91156 11.4039 8.65393C11.6616 8.3963 12.0107 8.25109 12.375 8.25Z" fill="#FFCA28"/>
</svg>
