<svg width="16" height="16" viewBox="0 0 16 16" fill="none" xmlns="http://www.w3.org/2000/svg">
<mask id="mask0_197_23140" style="mask-type:luminance" maskUnits="userSpaceOnUse" x="0" y="0" width="16" height="16">
<path d="M8 16C12.4183 16 16 12.4183 16 8C16 3.58172 12.4183 0 8 0C3.58172 0 0 3.58172 0 8C0 12.4183 3.58172 16 8 16Z" fill="white"/>
</mask>
<g mask="url(#mask0_197_23140)">
<path d="M8 16C12.4183 16 16 12.4183 16 8C16 3.58172 12.4183 0 8 0C3.58172 0 0 3.58172 0 8C0 12.4183 3.58172 16 8 16Z" fill="#29B6F6"/>
<path d="M13.2897 14.0016L6.14599 4.7998H4.80005V11.1971H5.8768V6.1673L12.4444 14.6527C12.7403 14.4547 13.0227 14.2372 13.2897 14.0016Z" fill="url(#paint0_linear_197_23140)"/>
<path d="M10.2223 4.7998H11.289V11.1998H10.2223V4.7998Z" fill="url(#paint1_linear_197_23140)"/>
</g>
<defs>
<linearGradient id="paint0_linear_197_23140" x1="9.52308" y1="10.3553" x2="12.3581" y2="13.8692" gradientUnits="userSpaceOnUse">
<stop stop-color="white"/>
<stop offset="1" stop-color="white" stop-opacity="0"/>
</linearGradient>
<linearGradient id="paint1_linear_197_23140" x1="10.7556" y1="4.7998" x2="10.7376" y2="9.49977" gradientUnits="userSpaceOnUse">
<stop stop-color="white"/>
<stop offset="1" stop-color="white" stop-opacity="0"/>
</linearGradient>
</defs>
</svg>
