<svg width="22" height="22" viewBox="0 0 22 22" fill="none" xmlns="http://www.w3.org/2000/svg">
<path d="M11 13.752V15.127H13.75C14.1147 15.127 14.4644 14.9821 14.7223 14.7242C14.9801 14.4664 15.125 14.1166 15.125 13.752V12.377C15.125 12.0123 14.9801 11.6625 14.7223 11.4047C14.4644 11.1468 14.1147 11.002 13.75 11.002H12.375V9.62695H15.125V8.25195H12.375C12.0103 8.25195 11.6606 8.39682 11.4027 8.65468C11.1449 8.91254 11 9.26228 11 9.62695V11.002C11 11.3666 11.1449 11.7164 11.4027 11.9742C11.6606 12.2321 12.0103 12.377 12.375 12.377H13.75V13.752H11Z" fill="#8BC34A"/>
<path d="M11 2.06445L2.75 6.87695V16.502L5.5 17.877H9.625V8.5957C9.625 8.50453 9.58878 8.4171 9.52432 8.35263C9.45985 8.28817 9.37242 8.25195 9.28125 8.25195H8.59375C8.50258 8.25195 8.41515 8.28817 8.35068 8.35263C8.28622 8.4171 8.25 8.50453 8.25 8.5957V16.502H5.5L4.125 15.7911V7.66551L11 3.65533L17.875 7.66551V15.7113L11 19.7215L9.80031 19.0189L8.9375 20.1113L11 21.3145L19.25 16.502V6.87695L11 2.06445Z" fill="#8BC34A"/>
</svg>
