<svg width="22" height="22" viewBox="0 0 22 22" fill="none" xmlns="http://www.w3.org/2000/svg">
<g clip-path="url(#clip0_197_23161)">
<path d="M16.1234 15.8315C16.2583 14.7086 16.2179 14.5438 17.0543 14.7258L17.2666 14.7444C17.9097 14.7736 18.751 14.6409 19.2453 14.4113C20.3094 13.9175 20.9402 13.0934 19.8913 13.3098C17.4981 13.8036 17.3336 12.9932 17.3336 12.9932C19.8607 9.24371 20.917 4.48398 20.005 3.31884C17.518 0.141041 13.2131 1.64374 13.141 1.68259L13.118 1.68688C12.6452 1.58874 12.116 1.53013 11.5215 1.52051C10.4385 1.50263 9.61674 1.80445 8.99335 2.2771C8.99335 2.2771 1.31346 -0.886944 1.67078 6.25618C1.74675 7.77573 3.84878 17.7543 6.3561 14.7403C7.27253 13.6382 8.15803 12.7063 8.15803 12.7063C8.59769 12.9983 9.12432 13.1475 9.67638 13.0939L9.71918 13.0574C9.70577 13.1943 9.71161 13.3282 9.73619 13.4866C9.09046 14.2083 9.28021 14.335 7.98891 14.6007C6.68232 14.8699 7.44991 15.3492 7.95092 15.4745C8.5585 15.6265 9.96393 15.8417 10.9137 14.5124L10.8759 14.664C11.1292 14.8668 11.1122 16.1209 11.148 17.0169C11.1839 17.9131 11.2439 18.7493 11.4266 19.2424C11.6093 19.7355 11.8248 21.0051 13.5219 20.6414C14.9402 20.3382 16.0246 19.9008 16.1234 15.8315Z" fill="black"/>
<path d="M12.9693 21.5284C12.2187 21.5284 11.7299 21.2381 11.4331 20.9577C10.985 20.5349 10.8073 19.9903 10.7011 19.6649L10.6552 19.5291C10.4414 18.952 10.3689 18.121 10.3259 17.0509C10.3194 16.8902 10.3149 16.7246 10.3099 16.5492C10.3063 16.4208 10.3018 16.2597 10.2953 16.0913C10.0249 16.2202 9.73785 16.3109 9.44245 16.3608C8.91325 16.4512 8.34434 16.422 7.7512 16.2736C7.33268 16.169 6.89784 15.9521 6.65 15.6171C5.92761 16.2497 5.23856 16.164 4.86318 16.0387C4.20095 15.8178 3.60832 15.1972 3.05128 14.1417C2.65442 13.3897 2.27062 12.4101 1.91037 11.2296C1.28303 9.174 0.884449 7.00889 0.849042 6.29801C0.737667 4.07309 1.33665 2.48187 2.62898 1.56905C4.66759 0.129076 7.75635 0.975905 8.88248 1.36039C9.63907 0.904405 10.5292 0.682514 11.535 0.698498C12.0752 0.707264 12.5897 0.754702 13.0675 0.839952C13.5659 0.683202 14.5504 0.458217 15.6774 0.472311C17.7538 0.497061 19.4744 1.30625 20.653 2.81239C21.4942 3.88695 21.0782 6.1435 20.7556 7.39303C20.3015 9.15062 19.5059 11.0199 18.5286 12.6472C18.794 12.6491 19.1785 12.6173 19.725 12.5044C20.8034 12.2818 21.1188 12.86 21.2044 13.1189C21.5473 14.1573 20.0568 14.9421 19.5918 15.158C18.9961 15.4345 18.0249 15.603 17.2294 15.5665L17.1947 15.5643L16.9857 15.5459L16.9651 15.7202L16.9451 15.8905C16.8917 17.9529 16.5971 19.2589 15.9909 20.1219C15.3555 21.0267 14.4724 21.2802 13.6945 21.4469C13.4291 21.5036 13.1879 21.5284 12.9693 21.5284ZM11.3898 14.0224C11.8743 14.4102 11.9168 15.1398 11.9547 16.5033C11.9596 16.6734 11.964 16.8345 11.97 16.9849C11.9883 17.4403 12.0311 18.5068 12.1981 18.9575C12.2217 19.0212 12.2428 19.0859 12.2652 19.1544C12.4513 19.7244 12.5446 20.0102 13.3495 19.8382C14.0252 19.6933 14.3725 19.5633 14.6444 19.1763C15.0396 18.6135 15.2606 17.4816 15.3012 15.8118L16.1232 15.8317L15.3068 15.7338L15.3309 15.5299C15.4091 14.8579 15.4655 14.3725 15.9146 14.0515C16.275 13.794 16.6856 13.8189 17.0127 13.8779C16.6533 13.6063 16.5539 13.2878 16.5275 13.1572L16.4589 12.8195L16.6516 12.5336C17.7614 10.8871 18.6764 8.86342 19.1625 6.98139C19.662 5.04762 19.5097 4.02067 19.3574 3.82645C17.3415 1.25056 13.8457 2.31412 13.4807 2.43478L13.4189 2.46812L13.1096 2.5257L12.9511 2.49287C12.5142 2.40212 12.0288 2.35194 11.5086 2.34351C10.6911 2.32976 10.0316 2.52295 9.49092 2.93322L9.11571 3.21767L8.68036 3.0384C7.75017 2.65805 5.01804 1.89337 3.57635 2.91448C2.7761 3.48133 2.41156 4.59198 2.49268 6.21569C2.5195 6.75176 2.8837 8.78109 3.48457 10.7492C4.3149 13.4692 5.06943 14.3727 5.38448 14.4777C5.43948 14.4963 5.58214 14.3854 5.7241 14.2149C6.31607 13.5053 6.92902 12.8135 7.56214 12.1404L8.03823 11.6394L8.61384 12.0218C8.84587 12.176 9.10179 12.2635 9.36459 12.28L10.7374 11.1091L10.5385 13.1386C10.534 13.1842 10.5318 13.2462 10.5497 13.3614L10.6095 13.746L10.3499 14.0362L10.32 14.0699L11.0742 14.4179L11.3898 14.0224Z" fill="black"/>
<path d="M19.8913 13.3101C17.4979 13.8039 17.3334 12.9935 17.3334 12.9935C19.8605 9.24385 20.9168 4.48395 20.0052 3.31915C17.5182 0.141526 13.2129 1.64423 13.1411 1.68324L13.1178 1.68737C12.645 1.58923 12.1158 1.53079 11.521 1.52117C10.438 1.50346 9.61658 1.8051 8.99319 2.27776C8.99319 2.27776 1.31313 -0.886114 1.67028 6.25684C1.74625 7.77656 3.84828 17.7551 6.3556 14.7411C7.27203 13.639 8.15736 12.7071 8.15736 12.7071C8.59719 12.9992 9.12364 13.1483 9.67554 13.0947L9.7185 13.0583C9.7051 13.1951 9.71129 13.329 9.73569 13.4874C9.08979 14.2092 9.27954 14.3358 7.98824 14.6015C6.68164 14.8707 7.44924 15.3501 7.95043 15.4754C8.55783 15.6273 9.96343 15.8425 10.913 14.5132L10.8751 14.6648C11.1282 14.8676 11.3059 15.9834 11.2762 16.9949C11.2465 18.0064 11.2264 18.7009 11.4259 19.2434C11.6253 19.7858 11.824 21.0061 13.5214 20.6424C14.9397 20.3386 15.6747 19.5509 15.7771 18.237C15.8496 17.3029 16.0138 17.4411 16.0243 16.6059L16.1561 16.2106C16.308 14.9444 16.1801 14.5361 17.0541 14.726L17.2664 14.7445C17.9095 14.7738 18.7512 14.6411 19.2454 14.4114C20.3093 13.918 20.9402 13.0937 19.8913 13.3101Z" fill="#336791"/>
<path d="M13.0551 21.0217C11.6402 21.0217 11.1919 19.9013 11.0085 19.443C10.7401 18.7715 10.6822 16.1656 10.742 14.0285C10.7429 13.9924 10.7509 13.9569 10.7655 13.924C10.7802 13.891 10.8012 13.8613 10.8274 13.8366C10.8537 13.8118 10.8845 13.7925 10.9182 13.7797C10.9519 13.7669 10.9878 13.7609 11.0238 13.7621C11.0598 13.763 11.0953 13.7711 11.1282 13.7858C11.161 13.8005 11.1907 13.8215 11.2154 13.8477C11.2402 13.8738 11.2595 13.9046 11.2724 13.9383C11.2852 13.9719 11.2913 14.0078 11.2902 14.0438C11.2213 16.5086 11.3191 18.7423 11.5178 19.2394C11.8279 20.0143 12.2981 20.6922 13.6276 20.4074C14.8897 20.1367 15.3623 19.6582 15.5729 18.4377C15.7344 17.5012 16.0539 14.8368 16.0933 14.311C16.0959 14.2751 16.1056 14.24 16.1218 14.2079C16.138 14.1757 16.1604 14.147 16.1877 14.1235C16.215 14.1 16.2467 14.0821 16.2809 14.0709C16.3152 14.0597 16.3513 14.0553 16.3872 14.058C16.4597 14.0635 16.5271 14.0975 16.5745 14.1526C16.6219 14.2078 16.6456 14.2794 16.6402 14.3519C16.5991 14.8993 16.2812 17.5586 16.1134 18.5311C15.8649 19.9726 15.2222 20.6264 13.7426 20.9437C13.4911 20.9975 13.2627 21.0215 13.0551 21.0217ZM5.38324 15.549C5.25957 15.5486 5.13677 15.5283 5.01956 15.4889C4.10054 15.1823 3.22518 13.6856 2.41771 11.0399C1.80309 9.02604 1.41362 6.924 1.37942 6.2408C1.27818 4.21543 1.79965 2.7825 2.92973 1.98208C5.16531 0.398083 8.9261 1.90646 9.08509 1.97143C9.15244 1.99894 9.2061 2.05207 9.23427 2.11915C9.26245 2.18623 9.26282 2.26175 9.23531 2.3291C9.2078 2.39645 9.15466 2.45011 9.08758 2.47828C9.02051 2.50646 8.94499 2.50683 8.87764 2.47932C8.84137 2.46454 5.23509 1.01975 3.24564 2.43033C2.27935 3.11543 1.83574 4.38833 1.92701 6.21347C1.95571 6.78908 2.31957 8.84058 2.9421 10.8797C3.66295 13.2416 4.48331 14.7319 5.19298 14.9686C5.30435 15.0057 5.64329 15.1187 6.12781 14.536C6.69281 13.8574 7.27903 13.1967 7.88557 12.555C7.93632 12.5044 8.00487 12.4756 8.07655 12.4749C8.14823 12.4742 8.21734 12.5015 8.26909 12.5511C8.32084 12.6007 8.35113 12.6686 8.35346 12.7403C8.35579 12.8119 8.32999 12.8816 8.28157 12.9345C8.27332 12.9431 7.44849 13.8054 6.54959 14.8868C6.12385 15.3988 5.71582 15.549 5.38324 15.549ZM17.3164 13.2382C17.2666 13.2381 17.2179 13.2245 17.1753 13.1989C17.1327 13.1733 17.0978 13.1365 17.0745 13.0926C17.0512 13.0487 17.0402 12.9993 17.0428 12.9496C17.0454 12.9 17.0614 12.852 17.0891 12.8107C19.6437 9.02002 20.5404 4.43972 19.7724 3.45832C18.8058 2.22322 17.441 1.57818 15.7155 1.54088C14.438 1.51338 13.4225 1.8396 13.2565 1.89649L13.2147 1.9135C13.0478 1.96593 12.9198 1.87449 12.8715 1.76758C12.844 1.70633 12.8398 1.63712 12.8598 1.57301C12.8797 1.50889 12.9225 1.4543 12.9799 1.41954C12.9879 1.4149 13.0129 1.40424 13.0537 1.38929C13.3357 1.28599 14.3666 0.976614 15.6435 0.991223C17.5527 1.0115 19.1298 1.74765 20.204 3.12041C20.7123 3.76993 20.7135 5.26627 20.2073 7.22599C19.6913 9.22404 18.7204 11.3713 17.5437 13.1173C17.4911 13.1959 17.4045 13.2382 17.3164 13.2382ZM17.447 14.993C17.0108 14.993 16.6197 14.9315 16.3857 14.7912C16.145 14.647 16.0991 14.4511 16.0931 14.3471C16.0275 13.1938 16.6637 12.9931 16.9882 12.9015C16.943 12.8331 16.8788 12.7526 16.8122 12.6696C16.623 12.4331 16.3638 12.1093 16.1641 11.625C16.1328 11.5493 16.0349 11.3735 15.9214 11.1698C15.3063 10.0667 14.0263 7.77135 14.8486 6.59589C15.2291 6.05191 15.9869 5.83775 17.1034 5.95721C16.7749 4.95655 15.2109 1.82636 11.4996 1.76552C10.3834 1.74696 9.46803 2.09019 8.78018 2.78474C7.24018 4.34004 7.29587 7.15414 7.29673 7.18233C7.29768 7.21833 7.29152 7.25417 7.27862 7.28779C7.26572 7.32141 7.24633 7.35217 7.22154 7.37829C7.19675 7.40442 7.16706 7.42541 7.13417 7.44006C7.10127 7.45471 7.06581 7.46274 7.02981 7.46369C6.99381 7.46464 6.95797 7.45849 6.92435 7.44559C6.89073 7.43269 6.85997 7.41329 6.83385 7.3885C6.80772 7.36372 6.78673 7.33403 6.77208 7.30113C6.75743 7.26823 6.7494 7.23277 6.74845 7.19677C6.74501 7.07182 6.6876 4.11866 8.39054 2.39871C9.18753 1.59382 10.2367 1.19644 11.5087 1.21724C13.883 1.25625 15.4113 2.46333 16.2751 3.46897C17.2168 4.56502 17.6785 5.77399 17.7165 6.17755C17.7448 6.47765 17.5295 6.53763 17.486 6.54657L17.387 6.5488C16.2913 6.37332 15.5883 6.49518 15.2977 6.91043C14.6722 7.80435 15.8831 9.97565 16.4001 10.9029C16.5321 11.1394 16.6273 11.3104 16.671 11.416C16.8408 11.8278 17.0623 12.1045 17.2402 12.3269C17.3968 12.5225 17.5324 12.6921 17.5809 12.8912C17.6034 12.9307 17.9229 13.4033 19.8189 13.012C20.2941 12.914 20.5791 12.9977 20.6662 13.2612C20.8376 13.7794 19.8761 14.3839 19.3438 14.6311C18.8668 14.8528 18.1056 14.993 17.447 14.993ZM16.6399 14.3019C16.7 14.3626 17.001 14.4673 17.6242 14.4404C18.1783 14.4167 18.7627 14.2962 19.1133 14.1335C19.5617 13.9252 19.8611 13.6923 20.0162 13.5333L19.9302 13.5491C18.718 13.7993 17.8605 13.766 17.3817 13.4499C17.3495 13.4287 17.3185 13.4057 17.2889 13.381C17.2369 13.4015 17.189 13.4149 17.1548 13.4245C16.8832 13.5006 16.6024 13.5795 16.6399 14.3019ZM8.80889 15.8342C8.50776 15.8342 8.19082 15.7931 7.86718 15.7121C7.53185 15.6283 6.96656 15.3758 6.97515 14.9611C6.98495 14.4958 7.66162 14.3562 7.91634 14.3038C8.83656 14.1142 8.89654 14.0383 9.18409 13.673C9.26796 13.5666 9.37229 13.4341 9.5146 13.2753C9.72584 13.0388 9.95667 12.919 10.2007 12.919C10.3707 12.919 10.5101 12.9766 10.6022 13.0149C10.8958 13.1366 11.1407 13.4308 11.2414 13.7827C11.3324 14.1001 11.2889 14.4057 11.1194 14.6431C10.563 15.4222 9.76399 15.8342 8.80889 15.8342ZM7.5676 14.9846C7.65028 15.0485 7.81596 15.134 8.00039 15.18C8.28071 15.2501 8.55262 15.2857 8.80906 15.2857C9.5904 15.2857 10.2177 14.9623 10.6734 14.3243C10.7684 14.1912 10.7399 14.0223 10.7145 13.9334C10.6612 13.7473 10.5288 13.578 10.3925 13.5214C10.3186 13.4908 10.2573 13.4675 10.2009 13.4675C10.1707 13.4675 10.0785 13.4675 9.92349 13.6409C9.8165 13.7612 9.71366 13.8851 9.61515 14.0125C9.25696 14.4673 9.09282 14.6216 8.0272 14.8411C7.76715 14.8944 7.63378 14.9487 7.5676 14.9846ZM9.67634 13.7196C9.61087 13.7195 9.5476 13.696 9.49795 13.6533C9.44831 13.6106 9.41556 13.5516 9.40563 13.4869C9.39876 13.4414 9.39417 13.3955 9.39189 13.3496C8.69339 13.3365 8.01946 13.0367 7.50779 12.5029C6.86085 11.8279 6.56643 10.8928 6.70015 9.93732C6.84539 8.89971 6.79107 7.98379 6.76185 7.49171C6.75378 7.3549 6.74793 7.25607 6.74828 7.18766C6.74879 7.10086 6.75051 6.87072 7.51982 6.48074C7.79345 6.34204 8.34207 6.10004 8.9414 6.03799C9.93432 5.93538 10.5888 6.37761 10.7848 7.28339C11.3136 9.72883 10.8267 10.8104 10.4711 11.6004C10.4049 11.7475 10.3424 11.8864 10.2923 12.021L10.2482 12.1396C10.0603 12.6433 9.89789 13.0785 9.94773 13.4035C9.9532 13.4391 9.95161 13.4754 9.94304 13.5104C9.93447 13.5454 9.91909 13.5783 9.89778 13.6074C9.87647 13.6364 9.84965 13.661 9.81885 13.6796C9.78805 13.6983 9.75387 13.7107 9.71828 13.7162L9.67634 13.7196ZM7.29845 7.26363L7.3091 7.45939C7.33935 7.97055 7.39573 8.92171 7.2431 10.0135C7.13293 10.8015 7.37356 11.5706 7.90362 12.1234C8.32248 12.5603 8.87368 12.8014 9.44018 12.8014H9.45187C9.51529 12.5342 9.62065 12.252 9.73409 11.9479L9.77792 11.83C9.83446 11.6781 9.90064 11.5309 9.97076 11.3752C10.313 10.6148 10.739 9.66833 10.2483 7.39941C10.1512 6.94996 9.91559 6.68991 9.52835 6.60415C8.73292 6.42849 7.54749 7.02679 7.29845 7.26363ZM8.9536 7.14727C8.93985 7.24421 9.13115 7.50305 9.38071 7.5376C9.62976 7.57249 9.84289 7.37002 9.85646 7.27308C9.87004 7.17614 9.67892 7.06924 9.42935 7.03452C9.17979 6.9998 8.96684 7.05033 8.9536 7.14727ZM9.43795 7.63299L9.36799 7.62818C9.21331 7.60669 9.0569 7.50924 8.94982 7.36727C8.91218 7.31743 8.85082 7.22083 8.86303 7.13455C8.88039 7.00805 9.03473 6.93225 9.27553 6.93225C9.32932 6.93225 9.38535 6.93621 9.44173 6.94411C9.57339 6.96233 9.69559 7.00032 9.78582 7.05068C9.94223 7.13799 9.95374 7.23544 9.9467 7.2858C9.92745 7.42554 9.70521 7.63299 9.43795 7.63299ZM9.04453 7.16343C9.05226 7.22324 9.20042 7.42055 9.39326 7.44719L9.43812 7.45029C9.61618 7.45029 9.74921 7.31021 9.76485 7.26432C9.74835 7.23304 9.63389 7.15535 9.41681 7.1251C9.37006 7.11849 9.32291 7.1151 9.2757 7.11496C9.13614 7.11496 9.06206 7.14641 9.04453 7.16343ZM16.5391 6.94944C16.5527 7.04638 16.3616 7.30522 16.1122 7.33994C15.863 7.37466 15.6497 7.17236 15.6359 7.07543C15.6229 6.97849 15.814 6.87141 16.0632 6.83686C16.3124 6.80197 16.5254 6.85268 16.5391 6.94944ZM16.0546 7.38944C15.8147 7.38944 15.6076 7.20279 15.5906 7.08161C15.5708 6.93621 15.8102 6.82569 16.0567 6.79149C16.111 6.78393 16.1648 6.78014 16.2165 6.78014C16.4293 6.78014 16.5702 6.84254 16.5843 6.94325C16.5934 7.0084 16.5434 7.10894 16.4573 7.19969C16.4004 7.25933 16.281 7.36263 16.1182 7.38514L16.0546 7.38944ZM16.2167 6.87158C16.169 6.87158 16.12 6.87508 16.0696 6.88207C15.8219 6.91661 15.6741 7.01596 15.6813 7.06924C15.6896 7.12785 15.8477 7.29818 16.0548 7.29818L16.1058 7.29457C16.2411 7.27583 16.3427 7.18749 16.3912 7.13661C16.4673 7.05669 16.4975 6.98141 16.4939 6.9558C16.4891 6.92177 16.3977 6.87158 16.2167 6.87158ZM16.8982 12.5165C16.8485 12.5165 16.7997 12.503 16.7571 12.4775C16.7145 12.4519 16.6797 12.4153 16.6563 12.3714C16.6329 12.3276 16.6219 12.2782 16.6244 12.2286C16.6269 12.179 16.6429 12.1309 16.6706 12.0897C17.2547 11.2174 17.1477 10.328 17.0444 9.46775C17.0003 9.10132 16.9549 8.72233 16.9666 8.35864C16.9786 7.98447 17.0262 7.67579 17.0721 7.37724C17.1266 7.02352 17.1782 6.6894 17.1569 6.29271C17.1549 6.25675 17.1601 6.22077 17.172 6.18681C17.184 6.15284 17.2025 6.12157 17.2266 6.09477C17.2506 6.06798 17.2797 6.04618 17.3122 6.03063C17.3447 6.01507 17.3799 6.00607 17.4159 6.00413C17.4518 6.00219 17.4878 6.00735 17.5218 6.01931C17.5557 6.03128 17.587 6.04982 17.6138 6.07387C17.6679 6.12245 17.7005 6.19053 17.7044 6.26314C17.7289 6.71655 17.6706 7.09468 17.6142 7.4606C17.5707 7.74299 17.5257 8.035 17.5149 8.37618C17.5044 8.69827 17.5455 9.0403 17.5889 9.40227C17.6989 10.317 17.8236 11.3537 17.1264 12.3948C17.1013 12.4322 17.0673 12.4629 17.0275 12.4841C16.9877 12.5054 16.9433 12.5165 16.8982 12.5165Z" fill="white"/>
</g>
<defs>
<clipPath id="clip0_197_23161">
<rect width="22" height="22" fill="white"/>
</clipPath>
</defs>
</svg>
