<svg width="22" height="22" viewBox="0 0 22 22" fill="none" xmlns="http://www.w3.org/2000/svg">
<path d="M12.1275 2.36508C11.825 1.70508 10.8992 1.65008 10.5233 2.27341L3.66667 13.4476C3.48334 13.7409 3.48334 14.1167 3.66667 14.4101L7.04001 19.7359C7.26001 20.0842 7.68168 20.2401 8.07584 20.1209L17.82 17.1967C18.3517 17.0409 18.6175 16.4451 18.3883 15.9409L12.1275 2.36508ZM16.06 15.9317L9.33168 17.9392C9.27529 17.9564 9.2154 17.9586 9.15791 17.9456C9.10042 17.9326 9.04731 17.9049 9.00382 17.8651C8.96033 17.8253 8.92796 17.7748 8.9099 17.7187C8.89184 17.6626 8.88872 17.6028 8.90084 17.5451L11.3117 5.53675C11.3758 5.20675 11.825 5.16091 11.9625 5.47258L16.28 15.4642C16.3625 15.6567 16.2617 15.8676 16.06 15.9317Z" fill="#00BCD4"/>
</svg>
