<svg width="22" height="22" viewBox="0 0 22 22" fill="none" xmlns="http://www.w3.org/2000/svg">
<path d="M11 8.25C16.1178 8.25 19.25 10.0306 19.25 11C19.25 11.9694 16.1178 13.75 11 13.75C5.88225 13.75 2.75 11.9694 2.75 11C2.75 10.0306 5.88225 8.25 11 8.25ZM11 6.875C5.68425 6.875 1.375 8.72163 1.375 11C1.375 13.2784 5.68425 15.125 11 15.125C16.3158 15.125 20.625 13.2784 20.625 11C20.625 8.72163 16.3158 6.875 11 6.875Z" fill="#00BCD4"/>
<path d="M11 9.625C10.7281 9.625 10.4622 9.70564 10.2361 9.85673C10.01 10.0078 9.83374 10.2226 9.72967 10.4738C9.6256 10.7251 9.59837 11.0015 9.65142 11.2682C9.70448 11.535 9.83543 11.78 10.0277 11.9723C10.22 12.1646 10.465 12.2955 10.7318 12.3486C10.9985 12.4016 11.2749 12.3744 11.5262 12.2703C11.7774 12.1663 11.9922 11.99 12.1433 11.7639C12.2944 11.5378 12.375 11.2719 12.375 11C12.375 10.6353 12.2301 10.2856 11.9723 10.0277C11.7144 9.76987 11.3647 9.625 11 9.625Z" fill="#00BCD4"/>
<path d="M7.18988 3.78613C8.57656 3.78613 11.2716 5.97032 13.3815 9.62507C15.9404 14.0574 15.9644 17.6599 15.125 18.1446C15.0282 18.1948 14.9198 18.2185 14.8108 18.2133C13.4241 18.2133 10.7284 16.0298 8.6185 12.3751C6.05963 7.94276 6.03556 4.34026 6.875 3.85557C6.97204 3.80524 7.08069 3.78083 7.18988 3.78613ZM7.18919 2.41182C6.83881 2.40548 6.49307 2.49257 6.1875 2.66413C4.21438 3.80332 4.76988 8.45907 7.42775 13.0626C9.6855 16.9744 12.7353 19.589 14.8115 19.589C15.1618 19.5948 15.5073 19.5072 15.8125 19.3353C17.7856 18.1968 17.2301 13.5411 14.5723 8.93757C12.3145 5.0257 9.26475 2.41113 7.1885 2.41113L7.18919 2.41182Z" fill="#00BCD4"/>
<path d="M14.8108 3.78593C14.9197 3.78075 15.0281 3.80447 15.125 3.85468C15.9644 4.34005 15.9403 7.94255 13.3815 12.3749C11.2708 16.0296 8.57584 18.2138 7.18916 18.2138C7.0802 18.219 6.97181 18.1953 6.87497 18.1451C6.03553 17.659 6.05959 14.0565 8.61847 9.62486C10.7291 5.97011 13.4241 3.78593 14.8108 3.78593ZM14.8108 2.41093C12.7345 2.41093 9.68547 5.02618 7.42703 8.93736C4.77053 13.5409 4.21434 18.1966 6.18747 19.3351C6.4929 19.5072 6.83865 19.5947 7.18916 19.5888C9.26541 19.5888 12.3145 16.9736 14.5729 13.0624C17.2294 8.45886 17.7856 3.80311 15.8125 2.66461C15.507 2.49257 15.1613 2.40501 14.8108 2.41093Z" fill="#00BCD4"/>
</svg>
